# xmcd
#
# Track frame offsets: 
#        183
#        17828
#        41528
#        59523
#        82115
#
# Disc length: 1391 seconds
#
# Revision: 1
# Processed by: cddbd v1.5.2PL0 Copyright (c) Steve Scherf et al.
# Submitted via: ExactAudioCopyFreeDBPlugin 1.0
#
DISCID=3c056d05
DTITLE=Whitehead Bros. - Your Love Is A 187 (Single)
DYEAR=1994
DGENRE=R&B
TTITLE0=Your Love Is A 187 (Radio Edit)
TTITLE1=Your Love Is A 187 (Pro Black Remix)
TTITLE2=Your Love Is A 187 (187 Send For Remix Back Up - Censored)
TTITLE3=Your Love Is A 187 (Mayhem Remix)
TTITLE4=Your Love Is A 187  (Stone Tha Lunatic)
EXTD=
EXTT0=
EXTT1=
EXTT2=
EXTT3=
EXTT4=
PLAYORDER=
